<svg aria-hidden="true" style="position: absolute; width: 0; height: 0; overflow: hidden;" version="1.1" xmlns="http://www.w3.org/2000/svg" xmlns:xlink="http://www.w3.org/1999/xlink">
<defs>
<symbol id="icon-close-black" viewBox="0 0 32 32">
<path d="M0 0h32v32h-32v-32z"></path>
<path d="M-1834.667-417.778h2844.444v1820.444h-2844.444v-1820.444z"></path>
<path  d="M-1834.667-275.556h2844.444v1066.667h-2844.444v-1066.667z"></path>
<path d="M-1834.667-275.556h2844.444v1066.667h-2844.444v-1066.667z"></path>
<path  d="M-1834.667-275.556h2844.444v1066.667h-2844.444v-1066.667z"></path>
<path  d="M-1834.667-417.778h2844.444v1820.444h-2844.444v-1820.444z"></path>
<path  d="M-881.778-17.778c0-3.927 3.184-7.111 7.111-7.111h924.444c3.927 0 7.111 3.184 7.111 7.111v1018.667c0 3.927-3.184 7.111-7.111 7.111h-924.444c-3.927 0-7.111-3.184-7.111-7.111v-1018.667z"></path>
<path d="M42.667 16c0 14.728-11.939 26.667-26.667 26.667s-26.667-11.939-26.667-26.667c0-14.728 11.939-26.667 26.667-26.667s26.667 11.939 26.667 26.667z"></path>
<path d="M41.778 16c0 14.237-11.541 25.778-25.778 25.778s-25.778-11.541-25.778-25.778c0-14.237 11.541-25.778 25.778-25.778s25.778 11.541 25.778 25.778z"></path>
<path d="M26.667 7.303l-1.97-1.97-7.808 7.808-7.808-7.808-1.97 1.97 7.808 7.808-7.808 7.808 1.97 1.97 7.808-7.808 7.808 7.808 1.97-1.97-7.808-7.808 7.808-7.808z"></path>
</symbol>
<symbol id="icon-email" viewBox="0 0 32 32">
<path d="M26.667 5.333h-21.333c-1.467 0-2.653 1.2-2.653 2.667l-0.013 16c0 1.467 1.2 2.667 2.667 2.667h21.333c1.467 0 2.667-1.2 2.667-2.667v-16c0-1.467-1.2-2.667-2.667-2.667zM26.133 11l-9.427 5.893c-0.427 0.267-0.987 0.267-1.413 0l-9.427-5.893c-0.333-0.213-0.533-0.573-0.533-0.96 0-0.893 0.973-1.427 1.733-0.96l8.933 5.587 8.933-5.587c0.76-0.467 1.733 0.067 1.733 0.96 0 0.387-0.2 0.747-0.533 0.96z"></path>
</symbol>
<symbol id="icon-phone" viewBox="0 0 32 32">
<path d="M24.882 19.773l-3.268-0.373c-0.785-0.090-1.557 0.18-2.11 0.733l-2.367 2.367c-3.641-1.853-6.626-4.825-8.478-8.478l2.38-2.38c0.553-0.553 0.823-1.325 0.733-2.11l-0.373-3.242c-0.154-1.299-1.248-2.277-2.56-2.277h-2.226c-1.454 0-2.663 1.209-2.573 2.663 0.682 10.987 9.469 19.761 20.443 20.443 1.454 0.090 2.663-1.119 2.663-2.573v-2.226c0.013-1.299-0.965-2.393-2.264-2.547z"></path>
</symbol>
<symbol id="icon-Vector" viewBox="0 0 32 32">
<path d="M16 16c4.42 0 8-3.58 8-8s-3.58-8-8-8c-4.42 0-8 3.58-8 8s3.58 8 8 8zM16 20c-5.34 0-16 2.68-16 8v2c0 1.1 0.9 2 2 2h28c1.1 0 2-0.9 2-2v-2c0-5.32-10.66-8-16-8z"></path>
</symbol>
</defs>
</svg>
